<?xml version="1.0" encoding="utf-8"?>
<!-- Generator: Adobe Illustrator 23.0.1, SVG Export Plug-In . SVG Version: 6.00 Build 0)  -->
<svg version="1.1" id="Layer_1" xmlns="http://www.w3.org/2000/svg" xmlns:xlink="http://www.w3.org/1999/xlink" x="0px" y="0px"
	 viewBox="0 0 716.6 703.6" style="enable-background:new 0 0 716.6 703.6;" xml:space="preserve">
<style type="text/css">
	.st0{fill:url(#SVGID_1_);}
	.st1{fill:url(#SVGID_2_);}
</style>
<linearGradient id="SVGID_1_" gradientUnits="userSpaceOnUse" x1="255.2846" y1="355.4785" x2="126.5781" y2="693.6656">
	<stop  offset="0" style="stop-color:#8E8F90"/>
	<stop  offset="0.4353" style="stop-color:#9B9B9D"/>
	<stop  offset="1" style="stop-color:#B2B3B5"/>
</linearGradient>
<polygon class="st0" points="295.7,582.1 140.9,703.6 76.3,520.3 71.3,506.1 226.1,384.7 273.9,520.3 "/>
<linearGradient id="SVGID_2_" gradientUnits="userSpaceOnUse" x1="567.0496" y1="-11.0994" x2="2.5972" y2="430.3056">
	<stop  offset="0" style="stop-color:#8E8F90"/>
	<stop  offset="0.4353" style="stop-color:#9B9B9D"/>
	<stop  offset="1" style="stop-color:#B2B3B5"/>
</linearGradient>
<polygon class="st1" points="689.2,0 387.2,0 379.9,5.8 326.1,48 299.3,69 249.2,108.2 154.8,182.3 3.5,301 0,303.7 3.5,313.7 
	65.4,489.3 71.3,506.1 226.1,384.6 321.2,310.1 371.3,270.8 379.9,264.1 397.4,250.4 552.2,128.9 716.6,0 "/>
</svg>
