<?xml version="1.0" encoding="UTF-8"?>
<svg width="183px" height="182px" viewBox="0 0 183 182" version="1.1" xmlns="http://www.w3.org/2000/svg" xmlns:xlink="http://www.w3.org/1999/xlink">
    <title>D1560C27-91E7-46B7-BDD3-60D069A5EA82</title>
    <defs>
        <polygon id="path-1" points="0 0 22.9918767 0 22.9918767 56.9425682 0 56.9425682"></polygon>
    </defs>
    <g id="Page-1" stroke="none" stroke-width="1" fill="none" fill-rule="evenodd">
        <g id="about-us" transform="translate(-856.000000, -9927.000000)">
            <g id="Group-40-Copy" transform="translate(856.253886, 9927.000000)">
                <rect id="Rectangle" x="0" y="0" width="182" height="182"></rect>
                <g id="Group-45" transform="translate(14.000000, 23.000000)">
                    <g id="Group-3" transform="translate(25.320812, 0.000000)">
                        <path d="M52.5218322,36.6777488 C79.5973976,36.6777488 101.54648,58.6526841 101.54648,85.7601405 C101.54648,112.867597 79.5973976,134.842532 52.5218322,134.842532 C25.4462668,134.842532 3.49718434,112.867597 3.49718434,85.7601405 C3.49718434,58.6526841 25.4462668,36.6777488 52.5218322,36.6777488 Z M51.4443674,40.9926844 C27.3441389,40.9926844 7.80704349,60.5527916 7.80704349,84.6814067 C7.80704349,108.810022 27.3441389,128.370129 51.4443674,128.370129 C75.544596,128.370129 95.0816914,108.810022 95.0816914,84.6814067 C95.0816914,60.5527916 75.544596,40.9926844 51.4443674,40.9926844 Z" id="Combined-Shape" fill="#FFC8CF"></path>
                        <path d="M32.6427646,35.9282512 C32.6691434,35.1191877 31.8476315,33.8782943 31.4069638,33.8870015 C31.0006829,33.8950027 30.8515954,34.1936361 30.9067083,34.5263922 C31.0353051,35.2987443 31.4387597,35.9256626 32.1778378,36.2245313 C32.5042758,36.3565512 32.6356989,36.0421508 32.6427646,35.9282512 M67.7652258,34.6885344 C67.4898969,34.6708847 67.1530958,34.6358205 67.0155491,35.0121127 C66.8923694,35.3488695 67.1773549,35.5152476 67.4006328,35.6496208 C68.1152163,36.0795682 68.864422,36.4198549 69.728564,36.1668755 C69.9118026,36.1132203 69.9004974,35.8934224 69.8225385,35.7698743 C69.3578473,35.0354104 68.5641273,34.9033904 67.7652258,34.6885344 M93.8030087,54.2726712 C94.2707618,54.0149852 94.7615963,53.6965842 95.291528,53.469491 C95.6653065,53.3089962 96.2364552,53.3706525 95.8494872,52.7009042 C95.5840503,52.2413053 95.3447567,51.599326 94.6518416,51.9664403 C94.1160217,52.2500125 93.6579252,52.6954917 93.2028905,53.1101426 C92.9405154,53.3492375 92.9930375,53.6692859 93.1906432,53.9575648 C93.3277188,54.157595 93.4798681,54.3223258 93.8030087,54.2726712 M72.5157693,22.2701866 C72.6594397,22.5490523 72.3899988,23.1145495 72.8838952,23.2077401 C73.3191458,23.2901055 73.5118054,22.7810874 73.6660744,22.4466839 C74.3601672,20.9415152 74.6870762,19.3370374 74.8415807,17.6958481 C74.8658398,17.4372208 74.9195396,17.0854029 74.5926306,16.9865644 C74.2730229,16.8898439 74.115692,17.2044797 73.9814427,17.4285136 C73.0994008,18.8995595 72.7157302,20.524511 72.5157693,22.2701866 M29.6207407,28.2574446 C29.0689051,26.9250079 28.5458036,25.4605512 27.8526529,24.0812839 C27.5525938,23.4842525 26.8234078,23.6546312 26.2630933,23.8876076 C25.8725925,24.0502204 25.7727298,24.3752107 25.9743394,24.7538562 C26.74592,26.2025457 27.638325,27.5714586 28.7238607,28.8069394 C28.8731836,28.9766121 29.0865695,29.1728771 29.325392,29.0726267 C29.6103775,28.9528438 29.6398182,28.6532691 29.6207407,28.2574446 M98.7170067,47.934066 C99.3034644,48.0896189 99.9631705,48.0910309 100.366861,47.7246226 C101.403172,46.7847158 102.571377,46.1834485 103.892438,45.761973 C104.354538,45.6146566 105.148258,45.2541315 104.547904,44.4933106 C104.105117,43.9322846 103.575185,43.281598 102.720464,44.0412423 C101.61326,45.0246851 100.466959,45.9634152 99.3550444,46.9414454 C99.0764181,47.1866589 98.7245435,47.4153994 98.7170067,47.934066 M64.6866758,22.5384625 C66.4747832,20.7546634 67.5888174,18.652228 67.7649903,16.106196 C67.7850099,15.8125046 67.7263642,15.4225633 67.3448133,15.3618482 C66.9903479,15.3056044 66.7899159,15.6282414 66.6281101,15.8861628 C65.3574516,17.9109394 64.9323286,20.1903428 64.6866758,22.5384625 M65.5654204,34.4885042 C63.571464,33.227843 63.4480488,31.5487657 63.8258312,29.7190773 C63.9282847,29.224179 64.0834958,28.7403411 64.2031426,28.2487374 C64.2935843,27.8776225 64.2549581,27.4780327 63.8604534,27.3667217 C63.4555856,27.2525868 63.3825727,27.6622958 63.2975481,27.9564579 C62.9089316,29.3020731 62.4998243,30.6427463 62.1531312,31.9991867 C61.9866148,32.6512853 61.6347402,33.4097529 62.4258694,33.9107698 C63.3020231,34.4661478 64.2087952,35.0243499 65.5654204,34.4885042 M61.174995,22.8321539 C61.9618847,22.3572586 62.2878516,21.6999828 62.6065172,21.0542381 C63.4200213,19.4069303 64.1284811,17.7177338 64.2942908,15.8633358 C64.3373919,15.3825572 64.4780005,14.6803334 63.903319,14.5280751 C63.2805903,14.363109 63.132916,15.0789819 62.9652221,15.5249317 C62.5139558,16.7274664 62.0725815,17.937767 61.7164674,19.1708946 C61.3879098,20.3084783 61.109519,21.4712423 61.174995,22.8321539 M71.3576918,17.3725051 C71.2764356,16.8823134 71.5053661,16.1913854 70.9014795,16.0294786 C70.2064446,15.8430974 70.0345112,16.5827387 69.8248938,17.0475148 C69.028112,18.8106048 68.5662471,20.6666501 68.4430674,22.6010602 C68.4166886,23.0161817 68.1378267,23.6419234 68.5690734,23.7861805 C69.0707421,23.9539706 69.4082497,23.3691763 69.6692116,22.9458182 C70.7234225,21.2359126 71.0757682,19.313975 71.3576918,17.3725051 M70.8503705,3.61513139 C63.4376856,3.9069402 58.5430008,6.70571621 55.8464726,12.9932549 C53.6457251,18.1243835 54.8396024,23.4002398 59.2118924,26.9106528 C59.629243,27.2457623 60.0501266,27.8611494 60.5897148,27.6620605 C61.175466,27.4460278 61.0840822,26.6652039 61.2743866,26.122769 C61.5374683,25.3725379 60.8690477,25.283348 60.4903232,25.0355458 C58.7038645,23.8668986 58.2796836,22.7994431 58.8781531,20.7537221 C59.5154843,18.5748045 60.1509314,16.3951809 60.8285374,14.2289711 C61.4621002,12.2032531 62.0615119,11.7445955 64.0929168,12.2399645 C69.2664635,13.5013317 74.4360063,14.7881144 79.5351271,16.3354072 C80.3947941,16.5961524 80.8274539,17.1738868 80.9365021,18.0267216 C81.0215267,18.690822 81.0316543,19.358923 80.8540683,20.0119629 C80.3307312,21.9371951 79.7209565,23.8431303 79.2885322,25.7883655 C78.7366966,28.2722704 77.6207782,28.7285746 75.1275083,29.1526387 C74.2541809,29.3008965 73.7336701,29.9341687 73.8968891,30.9554995 C74.0674094,32.0253083 74.797773,31.3256731 75.2765958,31.3068467 C75.6998346,31.2901383 76.1200116,31.1423513 76.5371267,31.0345703 C83.8605475,29.1425196 88.8593346,19.7436871 84.8130115,13.1659869 C84.5261418,12.6993281 84.2830798,12.2039591 83.9740707,11.7530674 C80.6154812,6.85891584 76.2010322,3.76644838 70.8503705,3.61513139 M99.6313155,85.8343833 C99.7403637,81.4854907 99.3477432,76.938921 97.7482915,72.4895426 C94.6786914,63.9503694 90.8085412,55.9938726 83.8478292,49.8087023 C78.4267455,44.9917389 72.4495867,41.0196091 65.5079522,39.1322649 C51.6680199,35.3693432 38.2939565,36.5817618 26.0129655,44.6119168 C19.6295258,48.7857242 14.2473037,53.9062629 10.6692047,60.8171899 C5.51779738,70.7673999 3.0346551,81.1557938 4.72902345,92.361723 C6.52113477,104.211514 12.1367623,113.934631 21.0886044,121.824059 C25.5077639,125.718765 30.4997207,128.511658 36.1351324,130.27616 C41.4693073,131.94653 46.8322163,133.392396 52.4563228,133.411867 C56.4772092,133.425813 60.4144841,132.579802 64.2914645,131.624129 C75.507175,128.859005 84.2830798,122.338254 91.1406317,113.283709 C97.1743165,105.316622 100.058323,96.1971263 99.6313155,85.8343833 M53.0844685,137 C36.7182928,136.388143 22.6626194,130.72611 11.9556434,117.94559 C6.16996668,111.039605 2.77651947,102.968032 0.930943939,94.2024718 C-1.02744817,84.8994185 0.252631338,75.8677003 3.38158374,67.0515441 C6.59720941,57.991351 11.9485777,50.3565499 19.3980045,44.2360953 C21.5528246,42.46571 23.939166,41.021727 26.2993642,39.5431506 C26.7711212,39.2478118 27.6635262,39.0595481 27.3017595,38.2123612 C26.8804049,37.2253885 26.8596786,35.833884 25.4319248,35.639031 C24.8016594,35.5529003 24.5484698,35.2039064 24.2926894,34.7756064 C22.7240915,32.1483857 21.4388304,29.373378 20.0628922,26.6456716 C19.7194964,25.9643921 19.8297222,25.3640661 20.4100563,24.8482234 C22.6475458,22.8596875 25.2990886,21.792232 28.2294933,21.3766398 C29.2203478,21.236148 29.8675711,21.7404595 30.2213299,22.6610692 C31.2176016,25.2541671 32.2291823,27.841617 33.2200369,30.4368329 C33.5262197,31.2393071 33.9504006,32.0794341 32.9049042,32.7112943 C32.7089472,32.8296652 32.6978775,33.0252241 32.7991534,33.2233717 C32.8526176,33.3283288 32.9133831,33.4290499 32.9656697,33.5344776 C34.1946402,36.0127346 34.1920494,36.004498 36.8621987,35.2074364 C42.6945095,33.4667026 48.6766142,33.292794 54.6961675,33.5250644 C55.6368552,33.5613052 56.5780139,33.6328454 57.5182306,33.6215496 C58.2938151,33.6121364 59.0102828,33.398457 59.2999788,32.5496228 C59.5790762,31.7318522 58.993796,31.314142 58.4744629,30.902315 C55.8796817,28.8445922 53.7156761,26.4705863 52.673006,23.237627 C51.7146539,20.2651777 51.4998549,17.2684894 52.2033687,14.2047321 C54.4154215,4.57339389 61.6109521,-0.065424972 69.7106641,0.000696842248 C78.9340668,0.0776554799 87.2485777,5.22055054 88.8009243,15.331726 C89.9177849,22.6069434 87.1762714,28.9053072 81.1317525,33.4605841 C78.9510246,35.1038913 76.3348105,35.5039518 73.6938664,35.7173958 C72.4660735,35.8167049 72.2727073,36.1619336 72.8674084,37.2705718 C73.1446216,37.7873558 73.601776,38.0728107 74.1058,38.3062577 C79.9140871,40.9953701 84.9373688,44.746996 89.2491288,49.463709 C89.5136236,49.7529292 89.7842421,50.0372075 90.0605131,50.3156025 C91.8380219,52.1069321 92.2273451,52.092577 93.9904868,50.2233533 C94.2523908,49.9456642 94.3687403,49.7204537 94.2439119,49.3003902 C93.9850697,48.4270817 94.3126853,47.6641429 94.9820479,47.0861731 C97.2989094,45.0854001 99.7462518,43.2479459 102.294399,41.5582787 C103.590494,40.6988547 104.281761,40.8809999 105.245294,42.0364686 C106.782567,43.8800414 108.051106,45.8935223 109.11568,48.0489069 C109.622295,49.0742384 109.461196,49.8185862 108.57986,50.4984537 C106.091065,52.4182733 103.421152,54.0589919 100.708843,55.6342888 C100.377459,55.8267885 100.045133,55.9792822 99.6037591,55.815022 C98.4263685,55.3768381 96.3485652,56.1350704 95.7413812,57.1681678 C95.3963367,57.7553153 95.735022,58.2424478 96.0079957,58.6975754 C98.4152989,62.7146532 100.276419,66.9842398 101.788491,71.4009074 C103.589788,76.6638206 104.097816,82.0957006 103.681171,87.6287722 C103.261937,93.1938488 102.402741,98.6732653 100.676105,104.000188 C98.0245625,112.180484 92.8088568,118.519559 86.4284789,124.063927 C79.7412116,129.874923 72.2851901,134.152981 63.5088143,135.908776 C60.0741501,136.595704 56.6083967,136.948933 53.0844685,137" id="Fill-1" fill="#010101"></path>
                    </g>
                    <path d="M10.125274,110.761257 C8.40923729,109.145719 7.05520287,107.395807 5.83588886,105.537409 C2.67349189,100.717386 1.02693515,95.3542224 0.375001376,89.6872481 C-1.17098609,76.2499228 2.17135214,63.8212205 8.40641099,52.0366156 C9.73383107,49.5277658 11.5664527,47.3650859 13.698898,45.4782124 C13.9669256,45.2412354 14.301607,44.7496317 14.6720881,45.0515597 C14.9954642,45.315129 14.7071814,45.7970842 14.5102823,46.1180739 C13.4056691,47.9199933 12.2117918,49.6691989 11.3033711,51.5857239 C6.76456476,61.159877 3.68059768,71.1317373 3.33037169,81.7945256 C3.08636758,89.2241193 4.60903805,96.3477843 7.50081656,103.191172 C8.36896248,105.245835 9.15632326,107.334151 9.96794313,109.412583 C10.1057254,109.765342 10.3410151,110.110571 10.125274,110.761257" id="Fill-4" fill="#000000"></path>
                    <g id="Group-8" transform="translate(130.008123, 78.804003)">
                        <mask id="mask-2" fill="white">
                            <use xlink:href="#path-1"></use>
                        </mask>
                        <g id="Clip-7"></g>
                        <path d="M20.9737554,0 C22.2255718,1.52681903 22.4997232,3.30049891 22.6956802,5.07535544 C23.5183697,12.5291881 22.5324612,19.8204079 20.9080438,27.0993905 C18.933636,35.9470809 15.0123768,43.7404943 8.99282352,50.4871612 C6.73154599,53.0216619 4.08895315,55.1048003 1.04855823,56.6567997 C0.741668882,56.8135292 0.444671594,57.0312092 0,56.9046018 C4.29621533,51.4571901 8.53637566,46.0062485 12.0497052,40.0375816 C15.5964793,34.0124355 17.3890617,27.3650777 18.9465899,20.6410025 C20.5149523,13.869626 20.4819787,6.92598812 20.9737554,0" id="Fill-6" fill="#000000" mask="url(#mask-2)"></path>
                    </g>
                    <path d="M15.4435745,101.356341 C15.0149186,101.36506 14.9414347,101.103609 14.8215524,100.922876 C11.2269667,95.5029978 9.3034323,89.5971639 9.17342239,83.0408787 C9.01868232,75.2201671 11.3334241,68.076499 14.6536229,61.1636894 C15.336175,59.742298 16.3875595,58.5548244 17.5929775,57.527375 C17.8445185,57.313225 18.1514078,56.9376388 18.4999851,57.1974428 C18.8139402,57.4313605 18.4978654,57.7923562 18.3751568,58.0370991 C15.116901,64.5369052 13.7322483,71.5546719 12.7218452,78.6611579 C12.1511676,82.6735291 12.9060259,86.6251852 13.6203739,90.5610743 C14.2355657,93.9498219 15.0544868,97.3020933 15.4407482,100.731788 C15.462181,100.921229 15.4435745,101.115611 15.4435745,101.356341" id="Fill-9" fill="#000000"></path>
                    <path d="M143.105822,90.1515301 C143.525998,101.023056 141.91689,111.185062 134.748445,119.803071 C132.456314,122.558782 130.030168,125.156586 126.557349,126.767889 C126.562295,125.892462 127.076447,125.58724 127.409715,125.190474 C132.231152,119.449371 136.377102,113.325857 138.644503,106.074878 C140.211923,101.061885 141.467037,95.9752339 142.580129,90.8485766 C142.626057,90.6370152 142.545272,90.3640328 143.105822,90.1515301" id="Fill-11" fill="#000000"></path>
                    <path d="M35.5625618,85.9661444 C35.7837199,94.8187767 38.57752,102.443459 43.590203,109.323322 C46.4720894,113.278508 49.4430044,117.228988 53.8044602,119.567224 C62.7958706,124.387246 72.2564472,127.611734 82.7097625,126.547102 C85.6776157,126.244939 88.6864502,125.988194 91.3942835,124.65011 C96.0934825,122.327641 100.938236,120.241679 105.009525,116.813866 C108.958576,113.489128 112.16219,109.543591 114.496245,104.969958 C117.898877,98.3011855 118.974757,91.0862125 119.0145,83.6789752 C119.047534,77.3556664 117.035442,71.5178428 114.702329,65.7630905 C114.008236,64.051773 113.148569,62.4185849 111.961758,60.9898984 C108.565955,56.9022217 104.805324,53.243551 100.360022,50.2445094 C90.7743812,43.7774142 80.3154132,41.6340313 68.9923033,43.5571456 C62.523839,44.6556646 57.0229122,47.8620316 51.9219072,51.8289842 C45.8634923,56.5409906 41.0050783,62.153839 38.5525543,69.5860213 C36.7611495,75.0146066 35.7128268,80.569564 35.5625618,85.9661444 M33.626309,84.7803181 C33.378301,77.2669471 35.5244067,70.2941284 38.4953217,63.5380483 C40.2033505,59.6541671 42.753853,56.3419017 45.9489879,53.5254759 C50.1408656,49.8307998 54.5204569,46.3909857 59.6207553,44.0313349 C67.503784,40.3844307 75.7617689,39.8074023 84.2390277,41.2768009 C86.0935532,41.5980259 87.9282946,41.9846726 89.7566768,42.4341523 C96.4015495,44.067105 101.690975,47.9283946 106.709075,52.3681245 C114.021897,58.838279 118.266768,66.9903348 120.287574,76.389638 C121.469675,81.8878809 121.33731,87.4381317 120.49201,92.9862644 C119.689104,98.2545902 118.325178,103.315591 115.470848,107.896283 C109.37522,117.679409 100.754291,124.292409 89.8848025,127.898601 C84.8747102,129.560499 79.5972969,129.384237 74.370757,129.063718 C67.5958743,128.64789 61.309471,126.471091 55.3141768,123.484286 C49.6547416,120.664566 45.2506557,116.320145 41.5967176,111.209019 C37.209354,105.071856 34.3328846,98.3414269 33.6486839,90.7612222 C33.4682716,88.7639791 33.5431686,86.766736 33.626309,84.7803181" id="Fill-13" fill="#000000"></path>
                    <path d="M77.5442472,87.0265165 C78.8398714,87.0378123 79.6828161,86.3285286 79.6960055,85.2161252 C79.7106081,83.9985294 78.0986735,82.620674 76.6610277,82.6223199 C75.8204382,82.6232627 75.1006731,83.4678609 75.0747654,84.4835439 C75.0370813,85.9677682 76.052666,87.013338 77.5442472,87.0265165 M110.617639,66.6297862 C110.59338,67.1213899 110.181211,67.2609405 109.876677,67.4607354 C108.043113,68.6639761 106.251708,69.9448756 104.345838,71.0222149 C97.3881881,74.9555153 90.5954056,79.1653282 83.6982854,83.1979378 C82.5281961,83.8822765 81.9410318,84.6306249 81.7806391,85.9670622 C81.5248587,88.0958546 79.550922,89.662209 77.5093895,89.5278358 C76.5979069,89.4675914 75.7215176,89.2200245 74.963833,88.7070058 C74.3222623,88.2723519 73.7749017,88.3022387 73.1347442,88.7173603 C70.7366266,90.2726542 68.2172134,91.6533335 66.0430802,93.5293818 C65.5437668,93.9602705 65.3127165,93.7745954 65.0152482,93.4004212 C64.5696345,92.8403365 64.2855911,92.2021224 64.0912828,91.515901 C63.73352,90.2514746 63.8880245,89.899892 65.1158174,89.492301 C67.4670656,88.7112417 69.708559,87.7094433 71.8052044,86.3788892 C72.4168634,85.9908305 72.7475408,85.6037132 72.731054,84.7953557 C72.6658135,81.58993 75.7815765,79.3568865 78.7143364,80.6547298 C80.2049755,81.3143589 81.3665858,81.1265658 82.671631,80.444345 C86.8698678,78.2496604 91.1432372,76.2041747 95.3289912,73.9803091 C99.9269143,71.5373516 104.620461,69.2739506 109.279149,66.9453633 C109.684253,66.7429798 110.105372,66.4897651 110.617639,66.6297862" id="Fill-15" fill="#000000"></path>
                    <path d="M73.5651665,108.330066 C74.2839895,108.290766 74.8388869,108.306298 75.3782396,108.222756 C77.423776,107.905531 79.1562995,107.102116 79.8701764,104.97097 C80.5769875,102.860534 79.9217564,100.788691 78.1421279,99.2757563 C77.3580645,98.6090673 76.4366899,98.1835913 75.5160219,97.7409361 C72.5078939,96.2955411 68.663887,97.5929137 68.0958002,101.460322 C68.033857,101.88368 67.8720512,102.291506 67.7860845,102.712511 C67.2735816,105.226538 68.8833965,107.635844 71.3992767,108.084147 C72.1677955,108.220873 72.9530365,108.262762 73.5651665,108.330066 M81.856596,103.185288 C81.7977147,107.993074 78.0330798,111.037299 73.4872077,110.117395 C72.4099154,109.899245 71.3663032,109.56437 70.3518961,109.140777 C64.66514,106.767242 64.2970141,100.716915 68.4655747,96.8617444 C70.4093643,95.0638255 72.6718194,94.4489091 75.3009873,95.4794178 C77.6588302,96.4030868 79.791511,97.5347873 81.0496866,99.8553734 C81.6415615,100.946362 81.927018,102.112185 81.856596,103.185288" id="Fill-17" fill="#000000"></path>
                    <path d="M88.4922597,50.1388228 C88.5315924,52.0537005 87.4495896,53.5452201 86.5998146,55.1071033 C86.3014042,55.6551861 85.6683124,55.8013258 85.047468,55.6984868 C84.3719817,55.5869405 83.8710196,55.1939399 83.7457201,54.5147784 C83.2989288,52.0930006 83.9414416,49.8809015 85.1704121,47.8130595 C85.4827186,47.2875683 86.042562,47.1458998 86.6153593,47.309454 C87.434987,47.5431363 88.1352035,47.9721424 88.3622498,48.8633359 C88.4668229,49.2730449 88.4526914,49.7126408 88.4922597,50.1388228" id="Fill-19" fill="#000000"></path>
                    <path d="M44.584873,79.0459925 C43.6748036,79.0796446 42.7802789,78.9591558 41.9149593,78.6911153 C40.7733686,78.3376501 40.0319352,77.0002715 40.3411798,75.9219909 C40.7517003,74.4911863 41.6247922,73.9736963 43.0730367,74.3076292 C44.1797697,74.5627266 45.2742553,74.8526527 46.3400069,75.2588318 C47.3117839,75.6290054 47.8546695,76.2622776 48.0254253,77.3113773 C48.1676825,78.1865685 47.9206166,78.6654644 47.0381036,78.8196053 C46.2250706,78.9617445 45.4160415,79.1161207 44.584873,79.0459925" id="Fill-21" fill="#000000"></path>
                    <path d="M111.518523,98.6266229 C109.9007,98.2665685 108.174536,97.4744488 106.605938,96.3622806 C106.088725,95.9954017 106.186468,95.3498923 106.422935,94.8516994 C106.758559,94.1445336 107.199226,93.4037158 108.098697,93.4041862 C109.950396,93.4053631 111.725785,93.8616674 113.438525,94.5464768 C113.636837,94.6257829 113.832794,94.8236951 113.933127,95.0166655 C114.532304,96.1702516 113.077935,98.619563 111.518523,98.6266229" id="Fill-23" fill="#000000"></path>
                    <path d="M71.1808174,116.838011 C70.9999202,118.308586 70.6619415,119.914241 70.054993,121.438471 C69.746455,122.213412 69.045532,122.664304 68.176915,122.510398 C67.1827631,122.333901 66.1506917,121.225027 66.2675122,120.437143 C66.5689844,118.403189 67.4255896,116.554674 68.4873373,114.825942 C69.0090256,113.976873 69.7584668,114.034058 70.437957,114.759579 C70.9422165,115.298014 71.1829233,115.939052 71.1808174,116.838011" id="Fill-25" fill="#000000"></path>
                    <path d="M40.9918418,94.5963667 C40.965934,93.2053328 42.0182606,91.6203874 42.9608325,91.6304584 C44.0119815,91.6420377 45.9011292,93.1079064 45.8990113,93.9103806 C45.8952411,95.4694398 44.6109221,96.8781233 43.1923538,96.8795359 C42.0246198,96.8804766 41.0149232,95.8327888 40.9918418,94.5963667" id="Fill-27" fill="#000000"></path>
                    <path d="M51.8970829,112.017424 C50.7366502,111.994832 49.5557268,110.668514 49.5566683,109.388556 C49.557611,108.267445 50.3715861,107.331539 51.356788,107.318831 C52.8950032,107.299063 54.4640721,108.782582 54.4558611,110.248686 C54.4494696,111.338968 53.4251704,112.047075 51.8970829,112.017424" id="Fill-29" fill="#000000"></path>
                    <path d="M68.384295,53.0944696 C68.3744029,54.3047702 67.5726751,55.3905814 66.6946371,55.3828569 C64.8978153,55.3661071 63.7126525,54.4998585 63.7439773,53.2255482 C63.7802482,51.7368526 64.7117504,50.4987831 65.7678454,50.5350239 C67.0191909,50.5778539 68.3939515,51.9227631 68.384295,53.0944696" id="Fill-31" fill="#000000"></path>
                    <path d="M48.8806644,61.5133658 C48.8578185,59.9816048 49.6119702,59.0868813 50.9309114,59.0816812 C52.2324237,59.0765268 52.9959964,59.950306 53.0383909,61.4935981 C53.0805499,63.0326542 52.4912659,63.9878575 51.5147784,63.9633832 C50.0945613,63.9276131 48.8999775,62.8166216 48.8806644,61.5133658" id="Fill-33" fill="#000000"></path>
                    <path d="M100.900811,109.388814 C102.21669,109.456354 103.778223,110.744549 103.728762,111.720932 C103.68048,112.672605 102.609311,113.42213 101.389526,113.357414 C100.120987,113.290345 98.8757653,112.072279 98.9551373,110.976819 C99.0255594,110.005849 99.8477779,109.334924 100.900811,109.388814" id="Fill-35" fill="#000000"></path>
                    <path d="M104.909097,61.5541484 C104.887664,63.0040146 104.495279,63.5723358 103.52727,63.5560981 C102.199379,63.5337417 100.950154,62.5109989 100.963579,61.4569572 C100.977239,60.373264 102.062304,58.9358703 102.872746,58.9283397 C104.161304,58.9165732 104.93312,59.9115472 104.909097,61.5541484" id="Fill-37" fill="#000000"></path>
                    <path d="M84.717874,118.742252 C84.7998368,117.24179 85.24074,116.618872 86.2007407,116.647818 C87.418406,116.684294 88.7795062,118.212995 88.7008408,119.455301 C88.6384266,120.440391 87.773107,121.112257 86.6263348,121.066603 C85.40443,121.01789 84.6441546,120.091868 84.717874,118.742252" id="Fill-39" fill="#000000"></path>
                    <path d="M114.3184,77.9362247 C114.313666,79.2912531 113.880299,79.8654575 112.85129,79.880048 C111.604184,79.8974624 110.464713,78.9869718 110.437863,77.9508152 C110.412662,76.9711377 111.387265,75.5641015 112.107265,75.5405685 C113.500397,75.4953852 114.323558,76.3870494 114.3184,77.9362247" id="Fill-41" fill="#000000"></path>
                    <path d="M75.7985108,99.8421008 C75.595017,101.133119 75.240316,102.457555 74.6114637,103.662914 C74.1863407,104.47739 73.399451,104.222998 72.772954,103.844588 C72.1923843,103.493947 72.1803725,102.954571 72.5941903,102.44673 C73.3608249,101.505646 73.9526997,100.457959 74.5471654,99.4074468 C74.7132106,99.1139907 74.9346043,98.7614668 75.3639668,98.900076 C75.7730741,99.0323313 75.7645952,99.4262732 75.7985108,99.8421008" id="Fill-43" fill="#000000"></path>
                </g>
            </g>
        </g>
    </g>
</svg>