<?xml version="1.0" encoding="utf-8"?>
<!-- Generator: Adobe Illustrator 23.0.1, SVG Export Plug-In . SVG Version: 6.00 Build 0)  -->
<svg version="1.1" id="Layer_1" xmlns="http://www.w3.org/2000/svg" xmlns:xlink="http://www.w3.org/1999/xlink" x="0px" y="0px"
	 viewBox="0 0 721.4 678.9" style="enable-background:new 0 0 721.4 678.9;" xml:space="preserve">
<style type="text/css">
	.st0{fill:url(#SVGID_1_);}
	.st1{fill:url(#SVGID_2_);}
</style>
<linearGradient id="SVGID_1_" gradientUnits="userSpaceOnUse" x1="534.1423" y1="275.4779" x2="548.3795" y2="61.5702">
	<stop  offset="0" style="stop-color:#000"/>
	<stop  offset="1" style="stop-color:#de381e"/>
</linearGradient>
<polygon class="st0" points="650,169 495.2,290.5 461.1,193.9 456.8,181.6 448.7,158.5 435.6,121.4 590.4,0 611.6,60.1 616,72.5 
	646.3,158.5 "/>
<linearGradient id="SVGID_2_" gradientUnits="userSpaceOnUse" x1="0" y1="423.9576" x2="721.4203" y2="423.9576">
	<stop  offset="0" style="stop-color:#F6CD14"/>
	<stop  offset="1" style="stop-color:#de381e"/>
</linearGradient>
<polygon class="st1" points="712.4,346.1 656,186.1 650,169 495.2,290.5 470.5,309.8 420.4,349.1 336,415.3 323.9,424.8 
	169.1,546.2 147.5,563.2 97.4,602.5 0,678.9 27.7,678.9 329.7,678.9 336,674 395.4,627.4 492.5,551.2 542.6,511.9 566.6,493.1 
	712.4,378.7 721.4,371.7 "/>
</svg>
